<svg width="230" height="259" viewBox="0 0 230 259" fill="none" xmlns="http://www.w3.org/2000/svg">
<g style="mix-blend-mode:luminosity">
<path d="M51.6191 205.158C51.3156 195.469 66.8812 187.116 86.386 186.503C105.892 185.891 121.951 193.249 122.256 202.939C122.561 212.628 106.994 220.981 87.4897 221.594C67.9836 222.206 51.924 214.849 51.6191 205.158Z" fill="#F1DBE4"/>
<path d="M66.1211 188.786L114.16 216.846C114.964 217.315 115.955 217.327 116.77 216.875L129.612 209.744C130.641 209.173 130.693 204.209 129.677 203.616L81.6124 179.091C80.5055 178.446 79.1333 178.455 78.0351 179.118L65.5934 182.81C64.6646 183.372 65.1832 188.237 66.1197 188.784L66.1211 188.786Z" fill="#AF8ECE"/>
<path d="M66.1215 184.743L114.16 212.804C114.964 213.273 115.957 213.284 116.771 212.832L129.612 205.701C130.641 205.13 130.657 203.657 129.64 203.064L81.6151 175.05C80.5073 174.404 79.1352 174.414 78.0374 175.076L66.1033 182.285C65.1741 182.847 65.1837 184.197 66.1215 184.745V184.743Z" fill="#9569BE"/>
<path d="M39.0068 153.145L190.214 240V87.7676L39.0068 0.910645V153.145Z" fill="#AF8ECE"/>
<path d="M34.1509 155.988L185.358 242.845V90.6099L34.1509 3.75342V155.988Z" fill="#D7C9E6"/>
<path d="M190.215 87.7679L185.358 90.6101L34.1509 3.75363L39.0078 0.911377L190.215 87.7679Z" fill="#AF8ECE"/>
<path d="M190.214 87.7671L185.357 90.6093V242.844L190.214 240V87.7671Z" fill="#AF8ECE"/>
<path d="M43.0531 156.476L174.5 231.981C177.288 233.582 180.763 231.57 180.763 228.356V118.051C180.763 114.936 179.098 112.058 176.397 110.508L44.4972 34.743C41.9375 33.2725 38.7444 35.1204 38.7444 38.0738V149.033C38.7444 152.107 40.3877 154.947 43.0531 156.477V156.476Z" fill="#F8F8F8"/>
<path d="M53.6829 31.2949C54.6312 30.7859 54.7146 29.0943 53.8679 27.5162C53.0217 25.9381 51.5661 25.0713 50.6178 25.5803C49.669 26.0889 49.5866 27.781 50.4333 29.3586C51.28 30.9367 52.735 31.8035 53.6829 31.2949Z" fill="#9569BE"/>
<path d="M60.6859 34.9897C61.6342 34.4812 61.7167 32.7891 60.8704 31.211C60.0237 29.6329 58.5686 28.7661 57.6199 29.2752C56.6715 29.7837 56.589 31.4753 57.4357 33.0534C58.282 34.6315 59.7375 35.4988 60.6859 34.9897Z" fill="#9569BE"/>
<path d="M67.6878 38.688C68.6361 38.179 68.7186 36.4874 67.8723 34.9093C67.0256 33.3311 65.5705 32.4644 64.6227 32.9734C63.6739 33.482 63.5909 35.174 64.4372 36.7517C65.2839 38.3298 66.7394 39.1965 67.6878 38.688Z" fill="#9569BE"/>
<path d="M174.191 96.3801C174.191 99.5063 170.808 101.467 168.087 99.9123L154.98 92.3772L97.6259 59.4291C95.8646 58.4206 94.4418 56.981 93.4575 55.2776C92.4732 53.5824 91.9272 51.6224 91.9272 49.5954C91.9272 46.2874 95.5 44.2281 98.3609 45.865L154.979 78.3902L168.17 85.9663C170.031 87.0331 171.536 88.5634 172.578 90.3657C173.621 92.1603 174.191 94.2283 174.191 96.3788V96.3801Z" fill="#F8F8F8"/>
<path d="M174.191 96.3802C174.191 99.5064 170.808 101.467 168.087 99.9124L154.98 92.3773V78.3916L168.171 85.9677C170.032 87.0346 171.537 88.5648 172.579 90.3671C173.621 92.1617 174.192 94.2297 174.192 96.3802H174.191Z" fill="#FBB03D"/>
<path d="M145.557 80.8838L97.9412 53.8503C97.4007 53.5427 96.9583 52.8492 96.9583 52.3087C96.9583 51.7682 97.4007 51.5768 97.9412 51.8831L145.557 78.9165C146.098 79.2246 146.54 79.9182 146.54 80.4587C146.54 80.9987 146.098 81.1905 145.557 80.8838Z" fill="#C6C5C4"/>
<path d="M176.398 231.982V144.765L44.4968 68.9993V157.471" stroke="#B3B3B3" stroke-width="0.325375" stroke-miterlimit="10"/>
<path d="M176.398 155.887L44.4968 80.1223" stroke="#B3B3B3" stroke-width="0.325375" stroke-miterlimit="10"/>
<path d="M176.398 128.493L44.4968 52.7273" stroke="#B3B3B3" stroke-width="0.325375" stroke-miterlimit="10"/>
<path d="M176.398 165.657L44.4968 89.8921" stroke="#B3B3B3" stroke-width="0.325375" stroke-miterlimit="10"/>
<path d="M176.398 175.427L44.4968 99.6606" stroke="#B3B3B3" stroke-width="0.325375" stroke-miterlimit="10"/>
<path d="M176.398 185.198L44.4968 109.432" stroke="#B3B3B3" stroke-width="0.325375" stroke-miterlimit="10"/>
<path d="M176.398 194.967L44.4968 119.201" stroke="#B3B3B3" stroke-width="0.325375" stroke-miterlimit="10"/>
<path d="M176.398 204.737L44.4968 128.971" stroke="#B3B3B3" stroke-width="0.325375" stroke-miterlimit="10"/>
<path d="M176.398 214.506L44.4968 138.741" stroke="#B3B3B3" stroke-width="0.325375" stroke-miterlimit="10"/>
<path d="M176.398 224.276L44.4968 148.512" stroke="#B3B3B3" stroke-width="0.325375" stroke-miterlimit="10"/>
<path d="M68.4437 82.7544V171.061" stroke="#B3B3B3" stroke-width="0.325375" stroke-miterlimit="10"/>
<path d="M96.9565 99.1406V187.447" stroke="#B3B3B3" stroke-width="0.325375" stroke-miterlimit="10"/>
<path d="M125.471 115.743V204.05" stroke="#B3B3B3" stroke-width="0.325375" stroke-miterlimit="10"/>
<path d="M153.984 131.771V220.077" stroke="#B3B3B3" stroke-width="0.325375" stroke-miterlimit="10"/>
<path d="M69.5825 61.3708L46.4809 48.3995C46.0001 48.1297 45.6073 47.5159 45.6073 47.0347V46.8916C45.6073 46.4108 46.0001 46.239 46.4809 46.5088L69.5825 59.48C70.0638 59.7494 70.457 60.3637 70.457 60.8444V60.988C70.457 61.4688 70.0638 61.6401 69.5825 61.3708Z" fill="#C6C5C4"/>
<path d="M69.5825 76.4316L46.4809 63.4603C46.0001 63.1905 45.6073 62.5767 45.6073 62.0959V61.9524C45.6073 61.4716 46.0001 61.2998 46.4809 61.5696L69.5825 74.5404C70.0638 74.8102 70.457 75.4245 70.457 75.9052V76.0483C70.457 76.5295 70.0638 76.7009 69.5825 76.4316Z" fill="#C6C5C4"/>
<path d="M101.211 79.877L78.1093 66.9053C77.6285 66.636 77.2357 66.0221 77.2357 65.5414V65.3978C77.2357 64.9171 77.6285 64.7453 78.1093 65.0146L101.211 77.9858C101.693 78.2556 102.085 78.8699 102.085 79.3507V79.4938C102.085 79.9745 101.693 80.1459 101.211 79.877Z" fill="#C6C5C4"/>
<path d="M132.838 98.3843L109.736 85.4126C109.255 85.1433 108.863 84.5294 108.863 84.0487V83.9051C108.863 83.4243 109.255 83.2521 109.736 83.5219L132.838 96.4931C133.319 96.7629 133.712 97.3767 133.712 97.858V98.0011C133.712 98.4823 133.319 98.6536 132.838 98.3843Z" fill="#C6C5C4"/>
<path d="M164.466 116.891L141.365 103.919C140.884 103.649 140.491 103.035 140.491 102.554V102.411C140.491 101.93 140.884 101.758 141.365 102.028L164.466 114.999C164.948 115.269 165.34 115.883 165.34 116.364V116.507C165.34 116.988 164.948 117.16 164.466 116.891Z" fill="#C6C5C4"/>
<path d="M46.4576 102.144L5.98453 78.8965C3.21277 77.3101 1.50085 74.3609 1.50085 71.1657V32.3065C1.50085 27.2907 6.9215 24.1478 11.2753 26.6372L50.3009 49.0581C53.1304 50.6768 54.8771 53.6881 54.8771 56.9488V97.2617C54.8771 101.582 50.208 104.29 46.459 102.144H46.4576Z" fill="#AF8ECE"/>
<path d="M44.9567 103.045L4.48368 79.7976C1.71119 78.2111 0 75.2616 0 72.0663V33.2072C0 28.1914 5.42064 25.0492 9.77449 27.5382L48.8 49.9588C51.6296 51.5775 53.3762 54.5888 53.3762 57.8495V98.1624C53.3762 102.482 48.7071 105.191 44.9582 103.045H44.9567Z" fill="#F584A3"/>
<path d="M2.00806 33.2093V72.063C2.00806 74.5356 3.33561 76.8279 5.47614 78.0541L45.9587 101.295C46.5219 101.617 47.1147 101.789 47.7372 101.789C49.4879 101.789 51.3673 100.401 51.3673 98.159V57.8483C51.3673 55.315 49.9995 52.962 47.7983 51.7054L8.77417 29.2779C8.0698 28.8752 7.31569 28.6748 6.5422 28.6748C4.36107 28.6748 2.00806 30.4035 2.00806 33.2093Z" fill="white"/>
<path d="M2.00708 56.4114V72.0633C2.00708 74.5355 3.33463 76.8278 5.47516 78.0541L45.9585 101.295C46.5209 101.616 47.1138 101.788 47.7373 101.788C49.4869 101.788 51.3663 100.401 51.3663 98.1589V86.7585L36.7995 65.8077L24.3995 75.3525L14.5617 46.5674L2.00562 56.4081L2.00708 56.4114Z" fill="#F7A3BA"/>
<path d="M42.3421 61.8373C43.7845 60.7746 43.3669 57.7596 41.4096 55.1038C39.4523 52.4479 36.6966 51.1562 35.2542 52.219C33.8115 53.2821 34.2295 56.2967 36.1871 58.9529C38.1445 61.6087 40.8998 62.9001 42.3421 61.8373Z" fill="#AF8ECE"/>
<path d="M108.397 158.679L108.348 245.195L101.135 249.814L101.182 163.298L108.397 158.679Z" fill="#ED8B00"/>
<path d="M113.543 170.977L96.2462 126.41L75.6392 149.974L85.1813 155.261L85.1348 240.577L101.136 249.814L101.182 164.127L113.543 170.977Z" fill="#FBB03D"/>
<path d="M121.097 166.696L113.542 170.977L96.245 126.41L103.799 122.128L121.097 166.696Z" fill="#ED8B00"/>
<path d="M37.0744 208.671L36.987 215.89L24.9332 222.849L24.8052 215.633L37.0744 208.671Z" fill="#EA5785"/>
<path d="M24.8545 215.611L24.8622 222.732L11.6314 215.092L11.6245 207.973L24.8545 215.611Z" fill="#F584A3"/>
<path d="M36.9065 208.813L24.9282 215.774L11.6451 208.105L23.6222 201.144L36.9065 208.813Z" fill="#F7A3BA"/>
<path d="M57.8444 191.807L57.8065 227.522L45.8278 234.484L45.8673 198.768L57.8444 191.807Z" fill="#6E3FA3"/>
<path d="M45.8681 198.768L45.8278 234.483L32.5452 226.815L32.5847 191.098L45.8681 198.768Z" fill="#9569BE"/>
<path d="M57.8449 191.807L45.8678 198.768L32.5852 191.098L44.5623 184.138L57.8449 191.807Z" fill="#AF8ECE"/>
<path d="M79.0377 193.155L78.9402 239.386L66.964 246.347L67.0606 200.114L79.0377 193.155Z" fill="#EA5785"/>
<path d="M67.0369 200.373L66.964 246.347L53.679 238.678L53.7527 192.704L67.0369 200.373Z" fill="#F584A3"/>
<path d="M78.9803 193.336L67.0041 200.296L53.719 192.626L65.6977 185.666L78.9803 193.336Z" fill="#F7A3BA"/>
<path d="M100.308 205.512L100.213 251.296L88.2341 258.257L87.9897 212.488L100.308 205.512Z" fill="#6E3FA3"/>
<path d="M88.2597 212.617L88.2243 258.326L74.9417 250.658L74.9763 204.948L88.2597 212.617Z" fill="#9569BE"/>
<path d="M100.117 205.55L88.1382 212.511L74.8552 204.842L86.8339 197.881L100.117 205.55Z" fill="#AF8ECE"/>
<path d="M153.159 38.6611C166.849 29.942 189.615 41.1566 203.966 63.6881C218.317 86.2196 218.854 111.593 205.164 120.312C191.475 129.031 168.708 117.816 154.358 95.2848C140.007 72.7533 139.47 47.3802 153.159 38.6611Z" fill="url(#paint0_linear_2842_130)"/>
<mask id="mask0_2842_130" style="mask-type:luminance" maskUnits="userSpaceOnUse" x="148" y="80" width="35" height="53">
<path d="M182.097 132.667L178.945 80.3245L148.167 105.347L182.097 132.667Z" fill="white"/>
</mask>
<g mask="url(#mask0_2842_130)">
<path d="M153.159 38.6611C166.849 29.942 189.615 41.1566 203.966 63.6881C218.317 86.2196 218.854 111.593 205.164 120.312C191.475 129.031 168.708 117.816 154.358 95.2848C140.007 72.7533 139.47 47.3802 153.159 38.6611Z" fill="#9062BC"/>
</g>
<mask id="mask1_2842_130" style="mask-type:luminance" maskUnits="userSpaceOnUse" x="126" y="0" width="53" height="120">
<path d="M133.167 119.421L178.945 80.3245L126.829 0L133.167 119.421Z" fill="white"/>
</mask>
<g mask="url(#mask1_2842_130)">
<path d="M153.159 38.6611C166.849 29.942 189.615 41.1566 203.966 63.6881C218.317 86.2196 218.854 111.593 205.164 120.312C191.475 129.031 168.708 117.816 154.358 95.2848C140.007 72.7533 139.47 47.3802 153.159 38.6611Z" fill="#FBB03D"/>
</g>
</g>
<defs>
<linearGradient id="paint0_linear_2842_130" x1="155.663" y1="55.0237" x2="311.273" y2="165.856" gradientUnits="userSpaceOnUse">
<stop stop-color="#6E3FA3"/>
<stop offset="0.5" stop-color="#B161A3"/>
<stop offset="1" stop-color="#F584A3"/>
</linearGradient>
</defs>
</svg>
