<svg width="155" height="155" viewBox="0 0 155 155" fill="none" xmlns="http://www.w3.org/2000/svg">
<path d="M150.87 78.4752C150.068 119.26 116.354 151.673 75.5686 150.87C34.7833 150.068 2.37095 116.354 3.17361 75.5685C3.97627 34.7833 37.69 2.3709 78.4753 3.17356C119.261 3.97622 151.673 37.69 150.87 78.4752Z" stroke="white" stroke-width="6.31797" stroke-linecap="round" stroke-linejoin="round"/>
<path d="M37.9375 36.3691L54.9303 54.0442" stroke="white" stroke-width="6.31797" stroke-linejoin="round"/>
<path d="M99.9987 54.9311L117.674 37.9383" stroke="white" stroke-width="6.31797" stroke-linejoin="round"/>
<path d="M78.1321 20.6396C46.9933 20.0268 21.2532 44.7733 20.6404 75.9121C20.334 91.4817 26.3674 105.701 36.3697 116.105L54.0448 99.1125C48.3915 93.2318 44.9813 85.1946 45.1545 76.3946C45.5009 58.7941 60.0492 44.8074 77.6497 45.1538C95.2501 45.5001 109.237 60.0485 108.891 77.6489C108.717 86.4489 104.994 94.3457 99.1132 99.9994L116.106 117.675C126.51 107.672 133.098 93.701 133.405 78.1314C134.017 46.9926 109.271 21.2525 78.1321 20.6396Z" stroke="white" stroke-width="6.31797" stroke-linecap="round" stroke-linejoin="round"/>
<path d="M58.2165 130.199C63.7621 132.16 69.7101 133.282 75.9132 133.404C82.1162 133.526 88.1037 132.639 93.7222 130.898L86.0564 116.437L66.4453 116.051L58.2165 130.199Z" stroke="#1C4863" stroke-width="6.31797" stroke-linecap="round" stroke-linejoin="round"/>
<path d="M86.3735 79.99L114.416 88.8948" stroke="#1C4863" stroke-width="6.31797" stroke-linecap="round" stroke-linejoin="round"/>
<path d="M74.0578 86.3693C68.8953 84.73 66.0392 79.216 67.6785 74.0535C69.3178 68.8911 74.8318 66.035 79.9943 67.6743C85.1567 69.3136 88.0128 74.8276 86.3735 79.9901C84.7342 85.1525 79.2202 88.0086 74.0578 86.3693Z" stroke="white" stroke-width="6.31797" stroke-linecap="round" stroke-linejoin="round"/>
</svg>
