<svg width="128" height="146" viewBox="0 0 128 146" fill="none" xmlns="http://www.w3.org/2000/svg">
<path d="M0 35.4717V58.4209L19.8746 69.8956L39.7493 58.4209V35.4717L19.8746 23.9971L0 35.4717Z" fill="white"/>
<path d="M0 85.9434V108.893L19.8746 120.367L39.7493 108.893V85.9434L19.8746 74.4688L0 85.9434Z" fill="white"/>
<path d="M43.7109 111.179V134.128L63.5856 145.603L83.4602 134.128V111.179L63.5856 99.7046L43.7109 111.179Z" fill="white"/>
<path d="M87.4199 85.9434V108.893L107.295 120.367L127.169 108.893V85.9434L107.295 74.4688L87.4199 85.9434Z" fill="white"/>
<path d="M87.4199 35.4717V58.4209L107.295 69.8956L127.169 58.4209V35.4717L107.295 23.9971L87.4199 35.4717Z" fill="white"/>
<path d="M43.7109 11.4746V34.4239L63.5856 45.8985L83.4602 34.4239V11.4746L63.5856 0L43.7109 11.4746Z" fill="white"/>
</svg>
