<svg width="125" height="155" viewBox="0 0 125 155" fill="none" xmlns="http://www.w3.org/2000/svg">
<g opacity="0.2">
<path d="M62.1455 142.481C75.7711 142.481 86.834 145.274 86.834 148.715C86.834 152.156 75.7711 154.95 62.1455 154.95C48.5199 154.95 37.457 152.156 37.457 148.715C37.457 145.274 48.5199 142.481 62.1455 142.481Z" fill="#DADEE9"/>
</g>
<path d="M18.9938 105.467C7.87889 94.3955 1 79.074 1 62.1457C1 28.3763 28.3763 1 62.1457 1C95.9151 1 123.291 28.3763 123.291 62.1457C123.291 79.074 116.412 94.3955 105.296 105.467L105.381 105.552L62.1457 148.789L18.9089 105.552L18.9938 105.467Z" fill="white"/>
<path d="M18.9938 105.467C7.87889 94.3955 1 79.074 1 62.1457C1 28.3763 28.3763 1 62.1457 1C95.9151 1 123.291 28.3763 123.291 62.1457C123.291 79.074 116.412 94.3955 105.296 105.467L105.381 105.552L62.1457 148.789L18.9089 105.552L18.9938 105.467Z" stroke="#1C4863" stroke-width="2"/>
<path d="M62.1456 15.5791C88.4111 15.5791 109.703 36.8714 109.703 63.1368C109.703 89.4023 88.4111 110.695 62.1456 110.695C35.8802 110.695 14.5879 89.4023 14.5879 63.1368C14.5879 36.8714 35.8802 15.5791 62.1456 15.5791Z" fill="#091822"/>
</svg>
