<svg width="195" height="178" viewBox="0 0 195 178" fill="none" xmlns="http://www.w3.org/2000/svg">
<path d="M40.7669 61.9916C39.7723 63.4563 40.0194 65.4335 41.3184 66.6368L42.8663 68.0711C44.0099 69.1306 44.3328 70.8 43.6907 72.2207C43.247 73.2026 42.8459 74.1976 42.4875 75.2018C41.9633 76.6702 40.5741 77.6498 39.0148 77.6199L36.8999 77.579C35.1278 77.545 33.5772 78.8009 33.279 80.5482C33.0222 82.0529 32.8393 83.5654 32.7297 85.0798C32.602 86.8451 33.8046 88.4327 35.5304 88.8253L37.6014 89.2963C39.121 89.6417 40.2346 90.9255 40.3903 92.476C40.4971 93.5415 40.6471 94.6026 40.8396 95.6561C41.1196 97.1889 40.4052 98.731 39.0407 99.4839L37.1814 100.51C35.6319 101.366 34.9162 103.224 35.528 104.885C36.0531 106.31 36.6476 107.712 37.3112 109.087C38.0818 110.683 39.9197 111.46 41.613 110.937L43.6336 110.312C45.1235 109.851 46.7297 110.407 47.6405 111.673C48.2631 112.539 48.9241 113.383 49.6225 114.204C50.6331 115.391 50.7851 117.085 49.9798 118.42L48.8901 120.227C47.9753 121.743 48.2859 123.711 49.6473 124.843C50.2301 125.328 50.8271 125.8 51.4393 126.261C52.0515 126.722 52.6712 127.164 53.2983 127.59C54.763 128.585 56.7405 128.338 57.9438 127.039L59.3779 125.491C60.4373 124.348 62.107 124.024 63.5277 124.666C64.5096 125.11 65.5045 125.511 66.5088 125.87C67.9775 126.394 68.9566 127.783 68.9266 129.343L68.886 131.457C68.852 133.229 70.1079 134.78 71.8552 135.078C73.3599 135.335 74.8721 135.518 76.3868 135.627C78.1521 135.755 79.7397 134.553 80.1323 132.827L80.6033 130.756C80.9487 129.236 82.2325 128.123 83.7829 127.967C84.8485 127.86 85.9096 127.71 86.963 127.518C88.4959 127.238 90.038 127.952 90.7909 129.316L91.8172 131.176C92.6726 132.725 94.5312 133.441 96.192 132.829C97.6167 132.304 99.0194 131.71 100.394 131.046C101.99 130.275 102.767 128.437 102.244 126.744L101.619 124.723C101.158 123.233 101.714 121.627 102.98 120.717C103.846 120.094 104.69 119.433 105.511 118.735C106.698 117.724 108.392 117.572 109.727 118.377L111.534 119.467C113.05 120.382 115.018 120.072 116.15 118.71C116.634 118.127 117.107 117.53 117.568 116.918C118.029 116.306 118.471 115.686 118.897 115.059C119.892 113.594 119.645 111.617 118.346 110.413L116.798 108.979C115.654 107.92 115.331 106.25 115.973 104.829C116.417 103.848 116.818 102.853 117.177 101.848C117.701 100.38 119.09 99.4005 120.65 99.4305L122.764 99.4712C124.537 99.5053 126.087 98.2493 126.385 96.5019C126.642 94.9972 126.825 93.485 126.934 91.9704C127.062 90.205 125.86 88.6175 124.134 88.2248L122.063 87.7538C120.543 87.4084 119.43 86.1246 119.274 84.5742C119.167 83.5086 119.017 82.4476 118.825 81.3941C118.545 79.8612 119.259 78.3191 120.623 77.5663L122.483 76.54C124.032 75.6845 124.748 73.826 124.136 72.1651C123.611 70.7402 123.016 69.3378 122.353 67.9631C121.582 66.3667 119.745 65.5894 118.051 66.1132L116.031 66.7382C114.541 67.1989 112.934 66.6428 112.024 65.3771C111.401 64.5115 110.74 63.6666 110.042 62.846C109.031 61.6589 108.879 59.9653 109.684 58.6305L110.774 56.8235C111.689 55.3075 111.379 53.3391 110.017 52.2073C109.434 51.7228 108.837 51.2497 108.225 50.7891C107.613 50.3285 106.993 49.8856 106.366 49.4599C104.901 48.4653 102.924 48.7124 101.72 50.0115L100.286 51.5594C99.2266 52.7029 97.5571 53.0259 96.1365 52.3837C95.1545 51.94 94.1596 51.5389 93.1554 51.1805C91.6869 50.6564 90.7075 49.2668 90.7375 47.7075L90.7781 45.5929C90.8123 43.8205 89.5563 42.2702 87.8089 41.972C86.3042 41.7152 84.792 41.5325 83.2774 41.4227C81.512 41.295 79.9244 42.4976 79.5318 44.2235L79.0608 46.2944C78.7154 47.814 77.4316 48.9276 75.8812 49.0833C74.8156 49.1902 73.7545 49.3401 72.7011 49.5326C71.1682 49.8126 69.6261 49.0982 68.8733 47.7338L67.847 45.8744C66.9915 44.3249 65.133 43.6092 63.4721 44.221C62.0471 44.7461 60.6448 45.3406 59.2701 46.0042C57.6737 46.7748 56.8964 48.6125 57.4202 50.306L58.0451 52.3266C58.5059 53.8165 57.9501 55.4227 56.6841 56.3335C55.8185 56.9561 54.9736 57.6171 54.153 58.3155C52.9659 59.3261 51.2721 59.4786 49.9373 58.6733L48.1305 57.5831C46.6144 56.6683 44.6459 56.9789 43.5141 58.3403C43.0296 58.9231 42.5567 59.5201 42.0961 60.1323C41.6355 60.7445 41.1926 61.3646 40.7669 61.9916ZM82.4528 77.7579L89.4517 83.0239C90.1924 83.5812 90.5793 84.4913 90.4668 85.4114L89.406 94.1053C89.2935 95.0254 88.6992 95.8152 87.8463 96.1782L79.7866 99.6062C78.9336 99.9692 77.952 99.8496 77.2113 99.2922L70.2124 94.0263C69.4717 93.469 69.0848 92.5589 69.1973 91.6388L70.2582 82.9449C70.3706 82.0248 70.9649 81.2349 71.8179 80.8719L79.8776 77.4439C80.7305 77.0809 81.7121 77.2006 82.4528 77.7579Z" fill="white"/>
<path d="M56.8714 169.631C57.034 169.391 57.194 169.149 57.3505 168.906C58.0816 167.773 57.8741 166.274 56.8696 165.374L55.1665 163.849C54.287 163.062 54.0008 161.797 54.477 160.717C54.9134 159.727 55.2986 158.722 55.6333 157.707C56.0033 156.586 57.0604 155.836 58.2413 155.839L60.5333 155.845C61.8896 155.848 63.042 154.86 63.2559 153.521C63.487 152.075 63.6383 150.621 63.7098 149.166C63.7761 147.814 62.8538 146.612 61.5287 146.333L59.2794 145.861C58.1243 145.619 57.2456 144.668 57.1164 143.495C56.999 142.427 56.8304 141.365 56.612 140.313C56.3721 139.158 56.9137 137.981 57.9373 137.394L59.9305 136.249C61.1049 135.575 61.61 134.147 61.1287 132.881C60.611 131.52 60.0177 130.183 59.3505 128.88C58.7328 127.672 57.3311 127.089 56.0426 127.512L53.8646 128.226C52.7426 128.594 51.5054 128.208 50.8069 127.256C50.1747 126.394 49.498 125.558 48.7767 124.751C47.9898 123.871 47.8708 122.58 48.4636 121.559L49.6115 119.582C50.2888 118.416 50.0228 116.927 48.9772 116.075C48.4096 115.613 47.8262 115.164 47.2268 114.728C46.6274 114.293 46.0195 113.877 45.4045 113.48C44.2715 112.749 42.7731 112.957 41.8733 113.961L40.3481 115.664C39.5605 116.543 38.2957 116.83 37.2155 116.354C36.2253 115.917 35.2209 115.532 34.2057 115.197C33.0843 114.827 32.3349 113.77 32.3377 112.589L32.3435 110.297C32.3469 108.941 31.3591 107.789 30.0199 107.575C28.5735 107.344 27.1197 107.192 25.6649 107.121C24.3124 107.054 23.1103 107.977 22.8321 109.302L22.3602 111.551C22.118 112.706 21.1663 113.585 19.9933 113.714C18.9256 113.832 17.8638 114 16.812 114.218C15.6567 114.458 14.4799 113.917 13.8924 112.893L12.7479 110.9C12.0738 109.726 10.6453 109.22 9.37969 109.702C8.01846 110.22 6.68217 110.813 5.37832 111.48C4.17112 112.098 3.58791 113.499 4.01039 114.788L4.72459 116.966C5.09237 118.088 4.70653 119.325 3.75458 120.024C3.68326 120.076 3.61186 120.129 3.54097 120.182" stroke="white" stroke-width="5" stroke-miterlimit="10" stroke-linecap="round"/>
<path d="M157.124 28.6121C156.984 29.2779 156.78 30.2498 156.78 30.2498C156.538 31.4049 155.586 32.2835 154.413 32.4128C153.346 32.5301 152.284 32.6987 151.232 32.9171C150.077 33.157 148.9 32.6154 148.312 31.5918L147.168 29.5986C146.494 28.4243 145.065 27.9191 143.8 28.4004C142.439 28.9182 141.102 29.5114 139.798 30.1786C138.591 30.7964 138.008 32.198 138.43 33.4865L139.145 35.6646C139.512 36.7865 139.127 38.0237 138.175 38.7222C137.313 39.3544 136.477 40.0309 135.67 40.7522C134.79 41.5391 133.499 41.6584 132.478 41.0655L130.501 39.9176C129.335 39.2406 127.846 39.5063 126.994 40.5519C126.532 41.1195 126.082 41.7029 125.647 42.3023C125.212 42.9017 124.796 43.5096 124.399 44.1246C123.668 45.2577 123.875 46.7562 124.88 47.656L126.583 49.1811C127.462 49.9686 127.749 51.2334 127.272 52.3136C126.836 53.3038 126.451 54.3082 126.116 55.3234C125.746 56.4448 124.689 57.1942 123.508 57.1914L121.216 57.1857C119.86 57.1822 118.707 58.17 118.493 59.5092C118.262 60.9556 118.111 62.4095 118.04 63.8642C117.973 65.2167 118.895 66.4188 120.221 66.697L122.47 67.169C123.625 67.4112 124.504 68.3628 124.633 69.5359C124.75 70.6035 124.919 71.6651 125.137 72.7168C125.377 73.8722 124.836 75.0492 123.812 75.6367L121.819 76.7812C120.644 77.4553 120.139 78.8838 120.621 80.1494C121.138 81.5107 121.732 82.847 122.399 84.1508C123.017 85.358 124.418 85.9412 125.707 85.5187L127.885 84.8045C129.007 84.4368 130.244 84.8226 130.942 85.7745C131.575 86.6366 132.251 87.4724 132.973 88.2791C133.76 89.1591 133.879 90.4505 133.286 91.4713L132.138 93.4481C131.461 94.6143 131.727 96.1037 132.772 96.9552C133.34 97.4172 133.923 97.8669 134.523 98.3022C135.122 98.7375 135.73 99.1537 136.345 99.5504C137.478 100.281 138.976 100.074 139.876 99.0692L141.401 97.3664C142.189 96.4869 143.454 96.2006 144.534 96.6768C145.524 97.1133 146.528 97.4985 147.544 97.8332C148.665 98.2032 149.414 99.2603 149.412 100.441L149.406 102.733C149.402 104.089 150.39 105.242 151.729 105.456C153.176 105.687 154.63 105.838 156.084 105.91C157.437 105.976 158.639 105.054 158.917 103.729C158.917 103.729 158.973 103.464 159.045 103.117" stroke="white" stroke-width="5" stroke-miterlimit="10" stroke-linecap="round"/>
<path d="M30.227 147.166C30.227 150.79 27.2889 153.728 23.6648 153.728C20.0406 153.728 17.1025 150.79 17.1025 147.166C17.1025 143.542 20.0406 140.604 23.6648 140.604C27.2889 140.604 30.227 143.542 30.227 147.166Z" fill="white"/>
<path d="M164.647 65.8645C164.647 69.4886 161.709 72.4268 158.085 72.4268C154.461 72.4268 151.522 69.4886 151.522 65.8645C151.522 62.2404 154.461 59.3022 158.085 59.3022C161.709 59.3022 164.647 62.2404 164.647 65.8645Z" fill="white"/>
<path d="M68.0883 8.12341L65.4621 11.9849C64.8985 12.8136 63.9511 13.2859 62.9491 13.2652C62.6434 13.2588 62.3364 13.262 62.0282 13.275C61.0264 13.3168 60.0691 12.8601 59.4901 12.0413L56.7876 8.22095C55.9744 7.07137 54.4597 6.66303 53.1764 7.24222C51.6428 7.93444 50.2143 8.78385 48.9039 9.76466C47.7809 10.6052 47.4138 12.1266 48.0238 13.3895L50.0598 17.6048C50.496 18.5078 50.4318 19.5658 49.9113 20.4228C49.7519 20.6852 49.6005 20.9529 49.4574 21.2245C48.9913 22.1105 48.1192 22.709 47.1222 22.801L42.4637 23.2308C41.0663 23.3597 39.9519 24.4596 39.8118 25.8558C39.6484 27.484 39.6589 29.1461 39.858 30.8178C40.0242 32.2156 41.1552 33.3019 42.559 33.4056L47.2213 33.7495C48.2216 33.8232 49.1067 34.4079 49.5877 35.2882C49.7358 35.559 49.8916 35.8239 50.0548 36.0827C50.5892 36.9303 50.6729 37.9851 50.2537 38.8952L48.3002 43.1363C47.7118 44.4139 48.1125 45.9313 49.2556 46.751C50.6014 47.7163 52.0486 48.5339 53.5701 49.1893C54.8622 49.7459 56.3684 49.3064 57.1595 48.1432L59.7853 44.2817C60.3489 43.4529 61.2963 42.9807 62.2983 43.0014C62.604 43.0077 62.9113 43.0047 63.2196 42.9917C64.2214 42.9499 65.1783 43.4065 65.7573 44.2253L68.4597 48.046C69.2729 49.1955 70.7877 49.6035 72.0709 49.0243C73.6046 48.3321 75.0335 47.4828 76.3439 46.502C77.4669 45.6615 77.8336 44.14 77.2236 42.877L75.1876 38.6618C74.7514 37.7588 74.8159 36.7009 75.3365 35.8439C75.4959 35.5815 75.6473 35.3138 75.7904 35.0422C76.2564 34.1562 77.1286 33.5577 78.1255 33.4656L82.7841 33.0358C84.1814 32.9069 85.2955 31.807 85.4356 30.4107C85.599 28.7825 85.5885 27.1205 85.3894 25.4488C85.2232 24.0509 84.0922 22.9646 82.6884 22.861L78.0261 22.517C77.0258 22.4434 76.1406 21.8586 75.6597 20.9783C75.5116 20.7076 75.3562 20.4427 75.1929 20.1839C74.6586 19.3363 74.5748 18.2815 74.9941 17.3714L76.9472 13.1303C77.5356 11.8526 77.1353 10.3354 75.9921 9.51565C74.6463 8.55035 73.1992 7.73274 71.6776 7.07737C70.3855 6.52074 68.8793 6.96027 68.0883 8.12341ZM70.8664 30.5101C69.5538 35.0624 64.7994 37.6887 60.247 36.3762C55.6947 35.0636 53.0683 30.3092 54.3809 25.7568C55.6935 21.2045 60.4479 18.5782 65.0003 19.8907C69.5526 21.2033 72.1789 25.9577 70.8664 30.5101Z" fill="white"/>
</svg>
