<svg width="404" height="397" viewBox="0 0 404 397" fill="none" xmlns="http://www.w3.org/2000/svg">
<mask id="mask0_533_656" style="mask-type:luminance" maskUnits="userSpaceOnUse" x="0" y="0" width="404" height="397">
<path d="M0 0H403.346V396.696H0V0Z" fill="white"/>
</mask>
<g mask="url(#mask0_533_656)">
<path d="M241.009 168.753L209.54 186.922V150.584L241.009 132.415V168.753Z" fill="white"/>
<path d="M241.009 168.753L209.54 186.922V150.584L241.009 132.415V168.753Z" stroke="black" stroke-width="0.5" stroke-linecap="round" stroke-linejoin="round"/>
<path d="M209.54 186.922L178.071 168.753V132.415L209.54 150.584V186.922Z" fill="white"/>
<path d="M209.54 186.922L178.071 168.753V132.415L209.54 150.584V186.922Z" stroke="black" stroke-width="0.5" stroke-linecap="round" stroke-linejoin="round"/>
<path d="M209.54 150.584L178.069 132.414L209.54 114.245L241.011 132.414L209.54 150.584Z" fill="white"/>
<path d="M209.54 150.584L178.069 132.414L209.54 114.245L241.011 132.414L209.54 150.584Z" stroke="black" stroke-width="0.5" stroke-linecap="round" stroke-linejoin="round"/>
<path d="M209.541 221.059L178.072 239.228V202.889L209.541 184.72V221.059Z" fill="white"/>
<path d="M209.541 221.059L178.072 239.228V202.889L209.541 184.72V221.059Z" stroke="black" stroke-width="0.5" stroke-linecap="round" stroke-linejoin="round"/>
<path d="M178.071 239.228L146.602 221.059V184.72L178.071 202.889V239.228Z" fill="white"/>
<path d="M178.071 239.228L146.602 221.059V184.72L178.071 202.889V239.228Z" stroke="black" stroke-width="0.5" stroke-linecap="round" stroke-linejoin="round"/>
<path d="M178.071 202.889L146.6 184.72L178.071 166.551L209.542 184.72L178.071 202.889Z" fill="white"/>
<path d="M178.071 202.889L146.6 184.72L178.071 166.551L209.542 184.72L178.071 202.889Z" stroke="black" stroke-width="0.5" stroke-linecap="round" stroke-linejoin="round"/>
<path d="M209.54 184.721L178.071 202.89V166.552L209.54 148.382V184.721Z" fill="white"/>
<path d="M209.54 184.721L178.071 202.89V166.552L209.54 148.382V184.721Z" stroke="black" stroke-width="0.5" stroke-linecap="round" stroke-linejoin="round"/>
<path d="M178.071 202.89L146.602 184.721V148.382L178.071 166.552V202.89Z" fill="white"/>
<path d="M178.071 202.89L146.602 184.721V148.382L178.071 166.552V202.89Z" stroke="black" stroke-width="0.5" stroke-linecap="round" stroke-linejoin="round"/>
<path d="M178.071 166.551L146.6 148.382L178.071 130.213L209.542 148.382L178.071 166.551Z" fill="white"/>
<path d="M178.071 166.551L146.6 148.382L178.071 130.213L209.542 148.382L178.071 166.551Z" stroke="black" stroke-width="0.5" stroke-linecap="round" stroke-linejoin="round"/>
<path d="M178.071 237.027L146.602 255.196V218.858L178.071 200.688V237.027Z" fill="white"/>
<path d="M178.071 237.027L146.602 255.196V218.858L178.071 200.688V237.027Z" stroke="black" stroke-width="0.5" stroke-linecap="round" stroke-linejoin="round"/>
<path d="M146.6 255.196L115.131 237.027V200.688L146.6 218.858V255.196Z" fill="white"/>
<path d="M146.6 255.196L115.131 237.027V200.688L146.6 218.858V255.196Z" stroke="black" stroke-width="0.5" stroke-linecap="round" stroke-linejoin="round"/>
<path d="M146.6 218.857L115.129 200.688L146.6 182.519L178.071 200.688L146.6 218.857Z" fill="white"/>
<path d="M146.6 218.857L115.129 200.688L146.6 182.519L178.071 200.688L146.6 218.857Z" stroke="black" stroke-width="0.5" stroke-linecap="round" stroke-linejoin="round"/>
<path d="M272.48 218.857L241.011 237.026V200.688L272.48 182.519V218.857Z" fill="white"/>
<path d="M272.48 218.857L241.011 237.026V200.688L272.48 182.519V218.857Z" stroke="black" stroke-width="0.5" stroke-linecap="round" stroke-linejoin="round"/>
<path d="M241.009 237.026L209.54 218.857V182.519L241.009 200.688V237.026Z" fill="white"/>
<path d="M241.009 237.026L209.54 218.857V182.519L241.009 200.688V237.026Z" stroke="black" stroke-width="0.5" stroke-linecap="round" stroke-linejoin="round"/>
<path d="M241.011 200.688L209.54 182.518L241.011 164.349L272.481 182.518L241.011 200.688Z" fill="white"/>
<path d="M241.011 200.688L209.54 182.518L241.011 164.349L272.481 182.518L241.011 200.688Z" stroke="black" stroke-width="0.5" stroke-linecap="round" stroke-linejoin="round"/>
<path d="M241.009 239.228L209.54 257.397V221.059L241.009 202.89V239.228Z" fill="white"/>
<path d="M241.009 239.228L209.54 257.397V221.059L241.009 202.89V239.228Z" stroke="black" stroke-width="0.5" stroke-linecap="round" stroke-linejoin="round"/>
<path d="M209.539 257.397L178.069 239.228V202.89L209.539 221.059V257.397Z" fill="white"/>
<path d="M209.539 257.397L178.069 239.228V202.89L209.539 221.059V257.397Z" stroke="black" stroke-width="0.5" stroke-linecap="round" stroke-linejoin="round"/>
<path d="M209.54 221.059L178.069 202.889L209.54 184.72L241.011 202.889L209.54 221.059Z" fill="white"/>
<path d="M209.54 221.059L178.069 202.889L209.54 184.72L241.011 202.889L209.54 221.059Z" stroke="black" stroke-width="0.5" stroke-linecap="round" stroke-linejoin="round"/>
<path d="M241.009 202.891L209.54 221.06V184.722L241.009 166.552V202.891Z" fill="white"/>
<path d="M241.009 202.891L209.54 221.06V184.722L241.009 166.552V202.891Z" stroke="black" stroke-width="0.5" stroke-linecap="round" stroke-linejoin="round"/>
<path d="M209.54 221.06L178.071 202.891V166.552L209.54 184.722V221.06Z" fill="white"/>
<path d="M209.54 221.06L178.071 202.891V166.552L209.54 184.722V221.06Z" stroke="black" stroke-width="0.5" stroke-linecap="round" stroke-linejoin="round"/>
<path d="M209.54 184.721L178.069 166.552L209.54 148.382L241.011 166.552L209.54 184.721Z" fill="white"/>
<path d="M209.54 184.721L178.069 166.552L209.54 148.382L241.011 166.552L209.54 184.721Z" stroke="black" stroke-width="0.5" stroke-linecap="round" stroke-linejoin="round"/>
<path d="M209.54 223.261L178.071 241.43V205.092L209.54 186.922V223.261Z" fill="white"/>
<path d="M209.54 223.261L178.071 241.43V205.092L209.54 186.922V223.261Z" stroke="black" stroke-width="0.5" stroke-linecap="round" stroke-linejoin="round"/>
<path d="M178.071 241.43L146.602 223.261V186.922L178.071 205.092V241.43Z" fill="white"/>
<path d="M178.071 241.43L146.602 223.261V186.922L178.071 205.092V241.43Z" stroke="black" stroke-width="0.5" stroke-linecap="round" stroke-linejoin="round"/>
<path d="M178.071 205.091L146.6 186.922L178.071 168.752L209.542 186.922L178.071 205.091Z" fill="white"/>
<path d="M178.071 205.091L146.6 186.922L178.071 168.752L209.542 186.922L178.071 205.091Z" stroke="black" stroke-width="0.5" stroke-linecap="round" stroke-linejoin="round"/>
</g>
</svg>
