<svg width="183" height="116" viewBox="0 0 183 116" fill="none" xmlns="http://www.w3.org/2000/svg">
<path d="M41.0273 33.9683H84.2347" stroke="#136FA8" stroke-width="7" stroke-linecap="round" stroke-linejoin="round"/>
<path d="M19.4033 56.0386H62.6513" stroke="#136FA8" stroke-width="7" stroke-linecap="round" stroke-linejoin="round"/>
<path d="M3.5 76.9727H42.0418" stroke="#136FA8" stroke-width="7" stroke-linecap="round" stroke-linejoin="round"/>
<path d="M144.989 25.4164C142.049 19.6467 144.343 12.5863 150.113 9.64654C155.883 6.70676 162.943 9.00083 165.883 14.7705C168.823 20.5401 166.529 27.6005 160.759 30.5403C154.989 33.4801 147.929 31.186 144.989 25.4164Z" stroke="white" stroke-width="7" stroke-linecap="round" stroke-linejoin="round"/>
<path d="M114.232 29.5543C117.124 26.7959 119.004 25.0023 119.004 25.0023L112.269 15.59L82.6932 9.99125L117.665 3.5L146.064 36.5242L153.042 55.4706L178.804 59.9333L146.064 66.8708L135.8 50.0747L112.959 66.8708L136.896 99.8139L77.3379 108.537L108.252 91.2941L83.748 58.635C83.748 58.635 104.601 38.7418 114.232 29.5543Z" stroke="white" stroke-width="7" stroke-linecap="round" stroke-linejoin="round"/>
<path d="M78.9201 63.0977L27.5986 111.904L88.2918 76.283L78.9201 63.0977Z" stroke="white" stroke-width="7" stroke-linecap="round" stroke-linejoin="round"/>
</svg>
